<?xml version="1.0" encoding="utf-8" standalone="no"?>
<!DOCTYPE svg PUBLIC "-//W3C//DTD SVG 1.1//EN"
  "http://www.w3.org/Graphics/SVG/1.1/DTD/svg11.dtd">
<svg xmlns:xlink="http://www.w3.org/1999/xlink" width="291.6pt" height="315.494531pt" viewBox="0 0 291.6 315.494531" xmlns="http://www.w3.org/2000/svg" version="1.1">
 <metadata>
  <rdf:RDF xmlns:dc="http://purl.org/dc/elements/1.1/" xmlns:cc="http://creativecommons.org/ns#" xmlns:rdf="http://www.w3.org/1999/02/22-rdf-syntax-ns#">
   <cc:Work>
    <dc:type rdf:resource="http://purl.org/dc/dcmitype/StillImage"/>
    <dc:date>2023-10-07T09:44:16.102300</dc:date>
    <dc:format>image/svg+xml</dc:format>
    <dc:creator>
     <cc:Agent>
      <dc:title>Matplotlib v3.7.1, https://matplotlib.org/</dc:title>
     </cc:Agent>
    </dc:creator>
   </cc:Work>
  </rdf:RDF>
 </metadata>
 <defs>
  <style type="text/css">*{stroke-linejoin: round; stroke-linecap: butt}</style>
 </defs>
 <g id="figure_1">
  <g id="patch_1">
   <path d="M 0 315.494531 
L 291.6 315.494531 
L 291.6 0 
L 0 0 
z
" style="fill: #ffffff"/>
  </g>
  <g id="axes_1">
   <g id="patch_2">
    <path d="M 7.2 308.294531 
L 284.4 308.294531 
L 284.4 31.094531 
L 7.2 31.094531 
z
" style="fill: #eaeaf2"/>
   </g>
   <g id="matplotlib.axis_1"/>
   <g id="matplotlib.axis_2"/>
   <g id="QuadMesh_1">
    <path d="M 7.2 31.094531 
L 24.525 31.094531 
L 24.525 48.419531 
L 7.2 48.419531 
L 7.2 31.094531 
" clip-path="url(#p3fd482809c)" style="fill: #64ff10"/>
    <path d="M 24.525 31.094531 
L 41.85 31.094531 
L 41.85 48.419531 
L 24.525 48.419531 
L 24.525 31.094531 
" clip-path="url(#p3fd482809c)" style="fill: #64ff10"/>
    <path d="M 41.85 31.094531 
L 59.175 31.094531 
L 59.175 48.419531 
L 41.85 48.419531 
L 41.85 31.094531 
" clip-path="url(#p3fd482809c)" style="fill: #64ff10"/>
    <path d="M 59.175 31.094531 
L 76.5 31.094531 
L 76.5 48.419531 
L 59.175 48.419531 
L 59.175 31.094531 
" clip-path="url(#p3fd482809c)" style="fill: #64ff10"/>
    <path d="M 76.5 31.094531 
L 93.825 31.094531 
L 93.825 48.419531 
L 76.5 48.419531 
L 76.5 31.094531 
" clip-path="url(#p3fd482809c)" style="fill: #64ff10"/>
    <path d="M 93.825 31.094531 
L 111.15 31.094531 
L 111.15 48.419531 
L 93.825 48.419531 
L 93.825 31.094531 
" clip-path="url(#p3fd482809c)" style="fill: #64ff10"/>
    <path d="M 111.15 31.094531 
L 128.475 31.094531 
L 128.475 48.419531 
L 111.15 48.419531 
L 111.15 31.094531 
" clip-path="url(#p3fd482809c)" style="fill: #64ff10"/>
    <path d="M 128.475 31.094531 
L 145.8 31.094531 
L 145.8 48.419531 
L 128.475 48.419531 
L 128.475 31.094531 
" clip-path="url(#p3fd482809c)" style="fill: #64ff10"/>
    <path d="M 145.8 31.094531 
L 163.125 31.094531 
L 163.125 48.419531 
L 145.8 48.419531 
L 145.8 31.094531 
" clip-path="url(#p3fd482809c)" style="fill: #64ff10"/>
    <path d="M 163.125 31.094531 
L 180.45 31.094531 
L 180.45 48.419531 
L 163.125 48.419531 
L 163.125 31.094531 
" clip-path="url(#p3fd482809c)" style="fill: #64ff10"/>
    <path d="M 180.45 31.094531 
L 197.775 31.094531 
L 197.775 48.419531 
L 180.45 48.419531 
L 180.45 31.094531 
" clip-path="url(#p3fd482809c)" style="fill: #64ff10"/>
    <path d="M 197.775 31.094531 
L 215.1 31.094531 
L 215.1 48.419531 
L 197.775 48.419531 
L 197.775 31.094531 
" clip-path="url(#p3fd482809c)" style="fill: #64ff10"/>
    <path d="M 215.1 31.094531 
L 232.425 31.094531 
L 232.425 48.419531 
L 215.1 48.419531 
L 215.1 31.094531 
" clip-path="url(#p3fd482809c)" style="fill: #64ff10"/>
    <path d="M 232.425 31.094531 
L 249.75 31.094531 
L 249.75 48.419531 
L 232.425 48.419531 
L 232.425 31.094531 
" clip-path="url(#p3fd482809c)" style="fill: #64ff10"/>
    <path d="M 249.75 31.094531 
L 267.075 31.094531 
L 267.075 48.419531 
L 249.75 48.419531 
L 249.75 31.094531 
" clip-path="url(#p3fd482809c)" style="fill: #64ff10"/>
    <path d="M 267.075 31.094531 
L 284.4 31.094531 
L 284.4 48.419531 
L 267.075 48.419531 
L 267.075 31.094531 
" clip-path="url(#p3fd482809c)" style="fill: #64ff10"/>
    <path d="M 7.2 48.419531 
L 24.525 48.419531 
L 24.525 65.744531 
L 7.2 65.744531 
L 7.2 48.419531 
" clip-path="url(#p3fd482809c)" style="fill: #64ff10"/>
    <path d="M 24.525 48.419531 
L 41.85 48.419531 
L 41.85 65.744531 
L 24.525 65.744531 
L 24.525 48.419531 
" clip-path="url(#p3fd482809c)" style="fill: #ff5785"/>
    <path d="M 41.85 48.419531 
L 59.175 48.419531 
L 59.175 65.744531 
L 41.85 65.744531 
L 41.85 48.419531 
" clip-path="url(#p3fd482809c)" style="fill: #64ff10"/>
    <path d="M 59.175 48.419531 
L 76.5 48.419531 
L 76.5 65.744531 
L 59.175 65.744531 
L 59.175 48.419531 
" clip-path="url(#p3fd482809c)" style="fill: #ff5785"/>
    <path d="M 76.5 48.419531 
L 93.825 48.419531 
L 93.825 65.744531 
L 76.5 65.744531 
L 76.5 48.419531 
" clip-path="url(#p3fd482809c)" style="fill: #64ff10"/>
    <path d="M 93.825 48.419531 
L 111.15 48.419531 
L 111.15 65.744531 
L 93.825 65.744531 
L 93.825 48.419531 
" clip-path="url(#p3fd482809c)" style="fill: #ff5785"/>
    <path d="M 111.15 48.419531 
L 128.475 48.419531 
L 128.475 65.744531 
L 111.15 65.744531 
L 111.15 48.419531 
" clip-path="url(#p3fd482809c)" style="fill: #64ff10"/>
    <path d="M 128.475 48.419531 
L 145.8 48.419531 
L 145.8 65.744531 
L 128.475 65.744531 
L 128.475 48.419531 
" clip-path="url(#p3fd482809c)" style="fill: #ff5785"/>
    <path d="M 145.8 48.419531 
L 163.125 48.419531 
L 163.125 65.744531 
L 145.8 65.744531 
L 145.8 48.419531 
" clip-path="url(#p3fd482809c)" style="fill: #64ff10"/>
    <path d="M 163.125 48.419531 
L 180.45 48.419531 
L 180.45 65.744531 
L 163.125 65.744531 
L 163.125 48.419531 
" clip-path="url(#p3fd482809c)" style="fill: #ff5785"/>
    <path d="M 180.45 48.419531 
L 197.775 48.419531 
L 197.775 65.744531 
L 180.45 65.744531 
L 180.45 48.419531 
" clip-path="url(#p3fd482809c)" style="fill: #64ff10"/>
    <path d="M 197.775 48.419531 
L 215.1 48.419531 
L 215.1 65.744531 
L 197.775 65.744531 
L 197.775 48.419531 
" clip-path="url(#p3fd482809c)" style="fill: #ff5785"/>
    <path d="M 215.1 48.419531 
L 232.425 48.419531 
L 232.425 65.744531 
L 215.1 65.744531 
L 215.1 48.419531 
" clip-path="url(#p3fd482809c)" style="fill: #64ff10"/>
    <path d="M 232.425 48.419531 
L 249.75 48.419531 
L 249.75 65.744531 
L 232.425 65.744531 
L 232.425 48.419531 
" clip-path="url(#p3fd482809c)" style="fill: #ff5785"/>
    <path d="M 249.75 48.419531 
L 267.075 48.419531 
L 267.075 65.744531 
L 249.75 65.744531 
L 249.75 48.419531 
" clip-path="url(#p3fd482809c)" style="fill: #64ff10"/>
    <path d="M 267.075 48.419531 
L 284.4 48.419531 
L 284.4 65.744531 
L 267.075 65.744531 
L 267.075 48.419531 
" clip-path="url(#p3fd482809c)" style="fill: #ff5785"/>
    <path d="M 7.2 65.744531 
L 24.525 65.744531 
L 24.525 83.069531 
L 7.2 83.069531 
L 7.2 65.744531 
" clip-path="url(#p3fd482809c)" style="fill: #64ff10"/>
    <path d="M 24.525 65.744531 
L 41.85 65.744531 
L 41.85 83.069531 
L 24.525 83.069531 
L 24.525 65.744531 
" clip-path="url(#p3fd482809c)" style="fill: #64ff10"/>
    <path d="M 41.85 65.744531 
L 59.175 65.744531 
L 59.175 83.069531 
L 41.85 83.069531 
L 41.85 65.744531 
" clip-path="url(#p3fd482809c)" style="fill: #ff5785"/>
    <path d="M 59.175 65.744531 
L 76.5 65.744531 
L 76.5 83.069531 
L 59.175 83.069531 
L 59.175 65.744531 
" clip-path="url(#p3fd482809c)" style="fill: #ff5785"/>
    <path d="M 76.5 65.744531 
L 93.825 65.744531 
L 93.825 83.069531 
L 76.5 83.069531 
L 76.5 65.744531 
" clip-path="url(#p3fd482809c)" style="fill: #64ff10"/>
    <path d="M 93.825 65.744531 
L 111.15 65.744531 
L 111.15 83.069531 
L 93.825 83.069531 
L 93.825 65.744531 
" clip-path="url(#p3fd482809c)" style="fill: #64ff10"/>
    <path d="M 111.15 65.744531 
L 128.475 65.744531 
L 128.475 83.069531 
L 111.15 83.069531 
L 111.15 65.744531 
" clip-path="url(#p3fd482809c)" style="fill: #ff5785"/>
    <path d="M 128.475 65.744531 
L 145.8 65.744531 
L 145.8 83.069531 
L 128.475 83.069531 
L 128.475 65.744531 
" clip-path="url(#p3fd482809c)" style="fill: #ff5785"/>
    <path d="M 145.8 65.744531 
L 163.125 65.744531 
L 163.125 83.069531 
L 145.8 83.069531 
L 145.8 65.744531 
" clip-path="url(#p3fd482809c)" style="fill: #64ff10"/>
    <path d="M 163.125 65.744531 
L 180.45 65.744531 
L 180.45 83.069531 
L 163.125 83.069531 
L 163.125 65.744531 
" clip-path="url(#p3fd482809c)" style="fill: #64ff10"/>
    <path d="M 180.45 65.744531 
L 197.775 65.744531 
L 197.775 83.069531 
L 180.45 83.069531 
L 180.45 65.744531 
" clip-path="url(#p3fd482809c)" style="fill: #ff5785"/>
    <path d="M 197.775 65.744531 
L 215.1 65.744531 
L 215.1 83.069531 
L 197.775 83.069531 
L 197.775 65.744531 
" clip-path="url(#p3fd482809c)" style="fill: #ff5785"/>
    <path d="M 215.1 65.744531 
L 232.425 65.744531 
L 232.425 83.069531 
L 215.1 83.069531 
L 215.1 65.744531 
" clip-path="url(#p3fd482809c)" style="fill: #64ff10"/>
    <path d="M 232.425 65.744531 
L 249.75 65.744531 
L 249.75 83.069531 
L 232.425 83.069531 
L 232.425 65.744531 
" clip-path="url(#p3fd482809c)" style="fill: #64ff10"/>
    <path d="M 249.75 65.744531 
L 267.075 65.744531 
L 267.075 83.069531 
L 249.75 83.069531 
L 249.75 65.744531 
" clip-path="url(#p3fd482809c)" style="fill: #ff5785"/>
    <path d="M 267.075 65.744531 
L 284.4 65.744531 
L 284.4 83.069531 
L 267.075 83.069531 
L 267.075 65.744531 
" clip-path="url(#p3fd482809c)" style="fill: #ff5785"/>
    <path d="M 7.2 83.069531 
L 24.525 83.069531 
L 24.525 100.394531 
L 7.2 100.394531 
L 7.2 83.069531 
" clip-path="url(#p3fd482809c)" style="fill: #64ff10"/>
    <path d="M 24.525 83.069531 
L 41.85 83.069531 
L 41.85 100.394531 
L 24.525 100.394531 
L 24.525 83.069531 
" clip-path="url(#p3fd482809c)" style="fill: #ff5785"/>
    <path d="M 41.85 83.069531 
L 59.175 83.069531 
L 59.175 100.394531 
L 41.85 100.394531 
L 41.85 83.069531 
" clip-path="url(#p3fd482809c)" style="fill: #ff5785"/>
    <path d="M 59.175 83.069531 
L 76.5 83.069531 
L 76.5 100.394531 
L 59.175 100.394531 
L 59.175 83.069531 
" clip-path="url(#p3fd482809c)" style="fill: #64ff10"/>
    <path d="M 76.5 83.069531 
L 93.825 83.069531 
L 93.825 100.394531 
L 76.5 100.394531 
L 76.5 83.069531 
" clip-path="url(#p3fd482809c)" style="fill: #64ff10"/>
    <path d="M 93.825 83.069531 
L 111.15 83.069531 
L 111.15 100.394531 
L 93.825 100.394531 
L 93.825 83.069531 
" clip-path="url(#p3fd482809c)" style="fill: #ff5785"/>
    <path d="M 111.15 83.069531 
L 128.475 83.069531 
L 128.475 100.394531 
L 111.15 100.394531 
L 111.15 83.069531 
" clip-path="url(#p3fd482809c)" style="fill: #ff5785"/>
    <path d="M 128.475 83.069531 
L 145.8 83.069531 
L 145.8 100.394531 
L 128.475 100.394531 
L 128.475 83.069531 
" clip-path="url(#p3fd482809c)" style="fill: #64ff10"/>
    <path d="M 145.8 83.069531 
L 163.125 83.069531 
L 163.125 100.394531 
L 145.8 100.394531 
L 145.8 83.069531 
" clip-path="url(#p3fd482809c)" style="fill: #64ff10"/>
    <path d="M 163.125 83.069531 
L 180.45 83.069531 
L 180.45 100.394531 
L 163.125 100.394531 
L 163.125 83.069531 
" clip-path="url(#p3fd482809c)" style="fill: #ff5785"/>
    <path d="M 180.45 83.069531 
L 197.775 83.069531 
L 197.775 100.394531 
L 180.45 100.394531 
L 180.45 83.069531 
" clip-path="url(#p3fd482809c)" style="fill: #ff5785"/>
    <path d="M 197.775 83.069531 
L 215.1 83.069531 
L 215.1 100.394531 
L 197.775 100.394531 
L 197.775 83.069531 
" clip-path="url(#p3fd482809c)" style="fill: #64ff10"/>
    <path d="M 215.1 83.069531 
L 232.425 83.069531 
L 232.425 100.394531 
L 215.1 100.394531 
L 215.1 83.069531 
" clip-path="url(#p3fd482809c)" style="fill: #64ff10"/>
    <path d="M 232.425 83.069531 
L 249.75 83.069531 
L 249.75 100.394531 
L 232.425 100.394531 
L 232.425 83.069531 
" clip-path="url(#p3fd482809c)" style="fill: #ff5785"/>
    <path d="M 249.75 83.069531 
L 267.075 83.069531 
L 267.075 100.394531 
L 249.75 100.394531 
L 249.75 83.069531 
" clip-path="url(#p3fd482809c)" style="fill: #ff5785"/>
    <path d="M 267.075 83.069531 
L 284.4 83.069531 
L 284.4 100.394531 
L 267.075 100.394531 
L 267.075 83.069531 
" clip-path="url(#p3fd482809c)" style="fill: #64ff10"/>
    <path d="M 7.2 100.394531 
L 24.525 100.394531 
L 24.525 117.719531 
L 7.2 117.719531 
L 7.2 100.394531 
" clip-path="url(#p3fd482809c)" style="fill: #64ff10"/>
    <path d="M 24.525 100.394531 
L 41.85 100.394531 
L 41.85 117.719531 
L 24.525 117.719531 
L 24.525 100.394531 
" clip-path="url(#p3fd482809c)" style="fill: #64ff10"/>
    <path d="M 41.85 100.394531 
L 59.175 100.394531 
L 59.175 117.719531 
L 41.85 117.719531 
L 41.85 100.394531 
" clip-path="url(#p3fd482809c)" style="fill: #64ff10"/>
    <path d="M 59.175 100.394531 
L 76.5 100.394531 
L 76.5 117.719531 
L 59.175 117.719531 
L 59.175 100.394531 
" clip-path="url(#p3fd482809c)" style="fill: #64ff10"/>
    <path d="M 76.5 100.394531 
L 93.825 100.394531 
L 93.825 117.719531 
L 76.5 117.719531 
L 76.5 100.394531 
" clip-path="url(#p3fd482809c)" style="fill: #ff5785"/>
    <path d="M 93.825 100.394531 
L 111.15 100.394531 
L 111.15 117.719531 
L 93.825 117.719531 
L 93.825 100.394531 
" clip-path="url(#p3fd482809c)" style="fill: #ff5785"/>
    <path d="M 111.15 100.394531 
L 128.475 100.394531 
L 128.475 117.719531 
L 111.15 117.719531 
L 111.15 100.394531 
" clip-path="url(#p3fd482809c)" style="fill: #ff5785"/>
    <path d="M 128.475 100.394531 
L 145.8 100.394531 
L 145.8 117.719531 
L 128.475 117.719531 
L 128.475 100.394531 
" clip-path="url(#p3fd482809c)" style="fill: #ff5785"/>
    <path d="M 145.8 100.394531 
L 163.125 100.394531 
L 163.125 117.719531 
L 145.8 117.719531 
L 145.8 100.394531 
" clip-path="url(#p3fd482809c)" style="fill: #64ff10"/>
    <path d="M 163.125 100.394531 
L 180.45 100.394531 
L 180.45 117.719531 
L 163.125 117.719531 
L 163.125 100.394531 
" clip-path="url(#p3fd482809c)" style="fill: #64ff10"/>
    <path d="M 180.45 100.394531 
L 197.775 100.394531 
L 197.775 117.719531 
L 180.45 117.719531 
L 180.45 100.394531 
" clip-path="url(#p3fd482809c)" style="fill: #64ff10"/>
    <path d="M 197.775 100.394531 
L 215.1 100.394531 
L 215.1 117.719531 
L 197.775 117.719531 
L 197.775 100.394531 
" clip-path="url(#p3fd482809c)" style="fill: #64ff10"/>
    <path d="M 215.1 100.394531 
L 232.425 100.394531 
L 232.425 117.719531 
L 215.1 117.719531 
L 215.1 100.394531 
" clip-path="url(#p3fd482809c)" style="fill: #ff5785"/>
    <path d="M 232.425 100.394531 
L 249.75 100.394531 
L 249.75 117.719531 
L 232.425 117.719531 
L 232.425 100.394531 
" clip-path="url(#p3fd482809c)" style="fill: #ff5785"/>
    <path d="M 249.75 100.394531 
L 267.075 100.394531 
L 267.075 117.719531 
L 249.75 117.719531 
L 249.75 100.394531 
" clip-path="url(#p3fd482809c)" style="fill: #ff5785"/>
    <path d="M 267.075 100.394531 
L 284.4 100.394531 
L 284.4 117.719531 
L 267.075 117.719531 
L 267.075 100.394531 
" clip-path="url(#p3fd482809c)" style="fill: #ff5785"/>
    <path d="M 7.2 117.719531 
L 24.525 117.719531 
L 24.525 135.044531 
L 7.2 135.044531 
L 7.2 117.719531 
" clip-path="url(#p3fd482809c)" style="fill: #64ff10"/>
    <path d="M 24.525 117.719531 
L 41.85 117.719531 
L 41.85 135.044531 
L 24.525 135.044531 
L 24.525 117.719531 
" clip-path="url(#p3fd482809c)" style="fill: #ff5785"/>
    <path d="M 41.85 117.719531 
L 59.175 117.719531 
L 59.175 135.044531 
L 41.85 135.044531 
L 41.85 117.719531 
" clip-path="url(#p3fd482809c)" style="fill: #64ff10"/>
    <path d="M 59.175 117.719531 
L 76.5 117.719531 
L 76.5 135.044531 
L 59.175 135.044531 
L 59.175 117.719531 
" clip-path="url(#p3fd482809c)" style="fill: #ff5785"/>
    <path d="M 76.5 117.719531 
L 93.825 117.719531 
L 93.825 135.044531 
L 76.5 135.044531 
L 76.5 117.719531 
" clip-path="url(#p3fd482809c)" style="fill: #ff5785"/>
    <path d="M 93.825 117.719531 
L 111.15 117.719531 
L 111.15 135.044531 
L 93.825 135.044531 
L 93.825 117.719531 
" clip-path="url(#p3fd482809c)" style="fill: #64ff10"/>
    <path d="M 111.15 117.719531 
L 128.475 117.719531 
L 128.475 135.044531 
L 111.15 135.044531 
L 111.15 117.719531 
" clip-path="url(#p3fd482809c)" style="fill: #ff5785"/>
    <path d="M 128.475 117.719531 
L 145.8 117.719531 
L 145.8 135.044531 
L 128.475 135.044531 
L 128.475 117.719531 
" clip-path="url(#p3fd482809c)" style="fill: #64ff10"/>
    <path d="M 145.8 117.719531 
L 163.125 117.719531 
L 163.125 135.044531 
L 145.8 135.044531 
L 145.8 117.719531 
" clip-path="url(#p3fd482809c)" style="fill: #64ff10"/>
    <path d="M 163.125 117.719531 
L 180.45 117.719531 
L 180.45 135.044531 
L 163.125 135.044531 
L 163.125 117.719531 
" clip-path="url(#p3fd482809c)" style="fill: #ff5785"/>
    <path d="M 180.45 117.719531 
L 197.775 117.719531 
L 197.775 135.044531 
L 180.45 135.044531 
L 180.45 117.719531 
" clip-path="url(#p3fd482809c)" style="fill: #64ff10"/>
    <path d="M 197.775 117.719531 
L 215.1 117.719531 
L 215.1 135.044531 
L 197.775 135.044531 
L 197.775 117.719531 
" clip-path="url(#p3fd482809c)" style="fill: #ff5785"/>
    <path d="M 215.1 117.719531 
L 232.425 117.719531 
L 232.425 135.044531 
L 215.1 135.044531 
L 215.1 117.719531 
" clip-path="url(#p3fd482809c)" style="fill: #ff5785"/>
    <path d="M 232.425 117.719531 
L 249.75 117.719531 
L 249.75 135.044531 
L 232.425 135.044531 
L 232.425 117.719531 
" clip-path="url(#p3fd482809c)" style="fill: #64ff10"/>
    <path d="M 249.75 117.719531 
L 267.075 117.719531 
L 267.075 135.044531 
L 249.75 135.044531 
L 249.75 117.719531 
" clip-path="url(#p3fd482809c)" style="fill: #ff5785"/>
    <path d="M 267.075 117.719531 
L 284.4 117.719531 
L 284.4 135.044531 
L 267.075 135.044531 
L 267.075 117.719531 
" clip-path="url(#p3fd482809c)" style="fill: #64ff10"/>
    <path d="M 7.2 135.044531 
L 24.525 135.044531 
L 24.525 152.369531 
L 7.2 152.369531 
L 7.2 135.044531 
" clip-path="url(#p3fd482809c)" style="fill: #64ff10"/>
    <path d="M 24.525 135.044531 
L 41.85 135.044531 
L 41.85 152.369531 
L 24.525 152.369531 
L 24.525 135.044531 
" clip-path="url(#p3fd482809c)" style="fill: #64ff10"/>
    <path d="M 41.85 135.044531 
L 59.175 135.044531 
L 59.175 152.369531 
L 41.85 152.369531 
L 41.85 135.044531 
" clip-path="url(#p3fd482809c)" style="fill: #ff5785"/>
    <path d="M 59.175 135.044531 
L 76.5 135.044531 
L 76.5 152.369531 
L 59.175 152.369531 
L 59.175 135.044531 
" clip-path="url(#p3fd482809c)" style="fill: #ff5785"/>
    <path d="M 76.5 135.044531 
L 93.825 135.044531 
L 93.825 152.369531 
L 76.5 152.369531 
L 76.5 135.044531 
" clip-path="url(#p3fd482809c)" style="fill: #ff5785"/>
    <path d="M 93.825 135.044531 
L 111.15 135.044531 
L 111.15 152.369531 
L 93.825 152.369531 
L 93.825 135.044531 
" clip-path="url(#p3fd482809c)" style="fill: #ff5785"/>
    <path d="M 111.15 135.044531 
L 128.475 135.044531 
L 128.475 152.369531 
L 111.15 152.369531 
L 111.15 135.044531 
" clip-path="url(#p3fd482809c)" style="fill: #64ff10"/>
    <path d="M 128.475 135.044531 
L 145.8 135.044531 
L 145.8 152.369531 
L 128.475 152.369531 
L 128.475 135.044531 
" clip-path="url(#p3fd482809c)" style="fill: #64ff10"/>
    <path d="M 145.8 135.044531 
L 163.125 135.044531 
L 163.125 152.369531 
L 145.8 152.369531 
L 145.8 135.044531 
" clip-path="url(#p3fd482809c)" style="fill: #64ff10"/>
    <path d="M 163.125 135.044531 
L 180.45 135.044531 
L 180.45 152.369531 
L 163.125 152.369531 
L 163.125 135.044531 
" clip-path="url(#p3fd482809c)" style="fill: #64ff10"/>
    <path d="M 180.45 135.044531 
L 197.775 135.044531 
L 197.775 152.369531 
L 180.45 152.369531 
L 180.45 135.044531 
" clip-path="url(#p3fd482809c)" style="fill: #ff5785"/>
    <path d="M 197.775 135.044531 
L 215.1 135.044531 
L 215.1 152.369531 
L 197.775 152.369531 
L 197.775 135.044531 
" clip-path="url(#p3fd482809c)" style="fill: #ff5785"/>
    <path d="M 215.1 135.044531 
L 232.425 135.044531 
L 232.425 152.369531 
L 215.1 152.369531 
L 215.1 135.044531 
" clip-path="url(#p3fd482809c)" style="fill: #ff5785"/>
    <path d="M 232.425 135.044531 
L 249.75 135.044531 
L 249.75 152.369531 
L 232.425 152.369531 
L 232.425 135.044531 
" clip-path="url(#p3fd482809c)" style="fill: #ff5785"/>
    <path d="M 249.75 135.044531 
L 267.075 135.044531 
L 267.075 152.369531 
L 249.75 152.369531 
L 249.75 135.044531 
" clip-path="url(#p3fd482809c)" style="fill: #64ff10"/>
    <path d="M 267.075 135.044531 
L 284.4 135.044531 
L 284.4 152.369531 
L 267.075 152.369531 
L 267.075 135.044531 
" clip-path="url(#p3fd482809c)" style="fill: #64ff10"/>
    <path d="M 7.2 152.369531 
L 24.525 152.369531 
L 24.525 169.694531 
L 7.2 169.694531 
L 7.2 152.369531 
" clip-path="url(#p3fd482809c)" style="fill: #64ff10"/>
    <path d="M 24.525 152.369531 
L 41.85 152.369531 
L 41.85 169.694531 
L 24.525 169.694531 
L 24.525 152.369531 
" clip-path="url(#p3fd482809c)" style="fill: #ff5785"/>
    <path d="M 41.85 152.369531 
L 59.175 152.369531 
L 59.175 169.694531 
L 41.85 169.694531 
L 41.85 152.369531 
" clip-path="url(#p3fd482809c)" style="fill: #ff5785"/>
    <path d="M 59.175 152.369531 
L 76.5 152.369531 
L 76.5 169.694531 
L 59.175 169.694531 
L 59.175 152.369531 
" clip-path="url(#p3fd482809c)" style="fill: #64ff10"/>
    <path d="M 76.5 152.369531 
L 93.825 152.369531 
L 93.825 169.694531 
L 76.5 169.694531 
L 76.5 152.369531 
" clip-path="url(#p3fd482809c)" style="fill: #ff5785"/>
    <path d="M 93.825 152.369531 
L 111.15 152.369531 
L 111.15 169.694531 
L 93.825 169.694531 
L 93.825 152.369531 
" clip-path="url(#p3fd482809c)" style="fill: #64ff10"/>
    <path d="M 111.15 152.369531 
L 128.475 152.369531 
L 128.475 169.694531 
L 111.15 169.694531 
L 111.15 152.369531 
" clip-path="url(#p3fd482809c)" style="fill: #64ff10"/>
    <path d="M 128.475 152.369531 
L 145.8 152.369531 
L 145.8 169.694531 
L 128.475 169.694531 
L 128.475 152.369531 
" clip-path="url(#p3fd482809c)" style="fill: #ff5785"/>
    <path d="M 145.8 152.369531 
L 163.125 152.369531 
L 163.125 169.694531 
L 145.8 169.694531 
L 145.8 152.369531 
" clip-path="url(#p3fd482809c)" style="fill: #64ff10"/>
    <path d="M 163.125 152.369531 
L 180.45 152.369531 
L 180.45 169.694531 
L 163.125 169.694531 
L 163.125 152.369531 
" clip-path="url(#p3fd482809c)" style="fill: #ff5785"/>
    <path d="M 180.45 152.369531 
L 197.775 152.369531 
L 197.775 169.694531 
L 180.45 169.694531 
L 180.45 152.369531 
" clip-path="url(#p3fd482809c)" style="fill: #ff5785"/>
    <path d="M 197.775 152.369531 
L 215.1 152.369531 
L 215.1 169.694531 
L 197.775 169.694531 
L 197.775 152.369531 
" clip-path="url(#p3fd482809c)" style="fill: #64ff10"/>
    <path d="M 215.1 152.369531 
L 232.425 152.369531 
L 232.425 169.694531 
L 215.1 169.694531 
L 215.1 152.369531 
" clip-path="url(#p3fd482809c)" style="fill: #ff5785"/>
    <path d="M 232.425 152.369531 
L 249.75 152.369531 
L 249.75 169.694531 
L 232.425 169.694531 
L 232.425 152.369531 
" clip-path="url(#p3fd482809c)" style="fill: #64ff10"/>
    <path d="M 249.75 152.369531 
L 267.075 152.369531 
L 267.075 169.694531 
L 249.75 169.694531 
L 249.75 152.369531 
" clip-path="url(#p3fd482809c)" style="fill: #64ff10"/>
    <path d="M 267.075 152.369531 
L 284.4 152.369531 
L 284.4 169.694531 
L 267.075 169.694531 
L 267.075 152.369531 
" clip-path="url(#p3fd482809c)" style="fill: #ff5785"/>
    <path d="M 7.2 169.694531 
L 24.525 169.694531 
L 24.525 187.019531 
L 7.2 187.019531 
L 7.2 169.694531 
" clip-path="url(#p3fd482809c)" style="fill: #64ff10"/>
    <path d="M 24.525 169.694531 
L 41.85 169.694531 
L 41.85 187.019531 
L 24.525 187.019531 
L 24.525 169.694531 
" clip-path="url(#p3fd482809c)" style="fill: #64ff10"/>
    <path d="M 41.85 169.694531 
L 59.175 169.694531 
L 59.175 187.019531 
L 41.85 187.019531 
L 41.85 169.694531 
" clip-path="url(#p3fd482809c)" style="fill: #64ff10"/>
    <path d="M 59.175 169.694531 
L 76.5 169.694531 
L 76.5 187.019531 
L 59.175 187.019531 
L 59.175 169.694531 
" clip-path="url(#p3fd482809c)" style="fill: #64ff10"/>
    <path d="M 76.5 169.694531 
L 93.825 169.694531 
L 93.825 187.019531 
L 76.5 187.019531 
L 76.5 169.694531 
" clip-path="url(#p3fd482809c)" style="fill: #64ff10"/>
    <path d="M 93.825 169.694531 
L 111.15 169.694531 
L 111.15 187.019531 
L 93.825 187.019531 
L 93.825 169.694531 
" clip-path="url(#p3fd482809c)" style="fill: #64ff10"/>
    <path d="M 111.15 169.694531 
L 128.475 169.694531 
L 128.475 187.019531 
L 111.15 187.019531 
L 111.15 169.694531 
" clip-path="url(#p3fd482809c)" style="fill: #64ff10"/>
    <path d="M 128.475 169.694531 
L 145.8 169.694531 
L 145.8 187.019531 
L 128.475 187.019531 
L 128.475 169.694531 
" clip-path="url(#p3fd482809c)" style="fill: #64ff10"/>
    <path d="M 145.8 169.694531 
L 163.125 169.694531 
L 163.125 187.019531 
L 145.8 187.019531 
L 145.8 169.694531 
" clip-path="url(#p3fd482809c)" style="fill: #ff5785"/>
    <path d="M 163.125 169.694531 
L 180.45 169.694531 
L 180.45 187.019531 
L 163.125 187.019531 
L 163.125 169.694531 
" clip-path="url(#p3fd482809c)" style="fill: #ff5785"/>
    <path d="M 180.45 169.694531 
L 197.775 169.694531 
L 197.775 187.019531 
L 180.45 187.019531 
L 180.45 169.694531 
" clip-path="url(#p3fd482809c)" style="fill: #ff5785"/>
    <path d="M 197.775 169.694531 
L 215.1 169.694531 
L 215.1 187.019531 
L 197.775 187.019531 
L 197.775 169.694531 
" clip-path="url(#p3fd482809c)" style="fill: #ff5785"/>
    <path d="M 215.1 169.694531 
L 232.425 169.694531 
L 232.425 187.019531 
L 215.1 187.019531 
L 215.1 169.694531 
" clip-path="url(#p3fd482809c)" style="fill: #ff5785"/>
    <path d="M 232.425 169.694531 
L 249.75 169.694531 
L 249.75 187.019531 
L 232.425 187.019531 
L 232.425 169.694531 
" clip-path="url(#p3fd482809c)" style="fill: #ff5785"/>
    <path d="M 249.75 169.694531 
L 267.075 169.694531 
L 267.075 187.019531 
L 249.75 187.019531 
L 249.75 169.694531 
" clip-path="url(#p3fd482809c)" style="fill: #ff5785"/>
    <path d="M 267.075 169.694531 
L 284.4 169.694531 
L 284.4 187.019531 
L 267.075 187.019531 
L 267.075 169.694531 
" clip-path="url(#p3fd482809c)" style="fill: #ff5785"/>
    <path d="M 7.2 187.019531 
L 24.525 187.019531 
L 24.525 204.344531 
L 7.2 204.344531 
L 7.2 187.019531 
" clip-path="url(#p3fd482809c)" style="fill: #64ff10"/>
    <path d="M 24.525 187.019531 
L 41.85 187.019531 
L 41.85 204.344531 
L 24.525 204.344531 
L 24.525 187.019531 
" clip-path="url(#p3fd482809c)" style="fill: #ff5785"/>
    <path d="M 41.85 187.019531 
L 59.175 187.019531 
L 59.175 204.344531 
L 41.85 204.344531 
L 41.85 187.019531 
" clip-path="url(#p3fd482809c)" style="fill: #64ff10"/>
    <path d="M 59.175 187.019531 
L 76.5 187.019531 
L 76.5 204.344531 
L 59.175 204.344531 
L 59.175 187.019531 
" clip-path="url(#p3fd482809c)" style="fill: #ff5785"/>
    <path d="M 76.5 187.019531 
L 93.825 187.019531 
L 93.825 204.344531 
L 76.5 204.344531 
L 76.5 187.019531 
" clip-path="url(#p3fd482809c)" style="fill: #64ff10"/>
    <path d="M 93.825 187.019531 
L 111.15 187.019531 
L 111.15 204.344531 
L 93.825 204.344531 
L 93.825 187.019531 
" clip-path="url(#p3fd482809c)" style="fill: #ff5785"/>
    <path d="M 111.15 187.019531 
L 128.475 187.019531 
L 128.475 204.344531 
L 111.15 204.344531 
L 111.15 187.019531 
" clip-path="url(#p3fd482809c)" style="fill: #64ff10"/>
    <path d="M 128.475 187.019531 
L 145.8 187.019531 
L 145.8 204.344531 
L 128.475 204.344531 
L 128.475 187.019531 
" clip-path="url(#p3fd482809c)" style="fill: #ff5785"/>
    <path d="M 145.8 187.019531 
L 163.125 187.019531 
L 163.125 204.344531 
L 145.8 204.344531 
L 145.8 187.019531 
" clip-path="url(#p3fd482809c)" style="fill: #ff5785"/>
    <path d="M 163.125 187.019531 
L 180.45 187.019531 
L 180.45 204.344531 
L 163.125 204.344531 
L 163.125 187.019531 
" clip-path="url(#p3fd482809c)" style="fill: #64ff10"/>
    <path d="M 180.45 187.019531 
L 197.775 187.019531 
L 197.775 204.344531 
L 180.45 204.344531 
L 180.45 187.019531 
" clip-path="url(#p3fd482809c)" style="fill: #ff5785"/>
    <path d="M 197.775 187.019531 
L 215.1 187.019531 
L 215.1 204.344531 
L 197.775 204.344531 
L 197.775 187.019531 
" clip-path="url(#p3fd482809c)" style="fill: #64ff10"/>
    <path d="M 215.1 187.019531 
L 232.425 187.019531 
L 232.425 204.344531 
L 215.1 204.344531 
L 215.1 187.019531 
" clip-path="url(#p3fd482809c)" style="fill: #ff5785"/>
    <path d="M 232.425 187.019531 
L 249.75 187.019531 
L 249.75 204.344531 
L 232.425 204.344531 
L 232.425 187.019531 
" clip-path="url(#p3fd482809c)" style="fill: #64ff10"/>
    <path d="M 249.75 187.019531 
L 267.075 187.019531 
L 267.075 204.344531 
L 249.75 204.344531 
L 249.75 187.019531 
" clip-path="url(#p3fd482809c)" style="fill: #ff5785"/>
    <path d="M 267.075 187.019531 
L 284.4 187.019531 
L 284.4 204.344531 
L 267.075 204.344531 
L 267.075 187.019531 
" clip-path="url(#p3fd482809c)" style="fill: #64ff10"/>
    <path d="M 7.2 204.344531 
L 24.525 204.344531 
L 24.525 221.669531 
L 7.2 221.669531 
L 7.2 204.344531 
" clip-path="url(#p3fd482809c)" style="fill: #64ff10"/>
    <path d="M 24.525 204.344531 
L 41.85 204.344531 
L 41.85 221.669531 
L 24.525 221.669531 
L 24.525 204.344531 
" clip-path="url(#p3fd482809c)" style="fill: #64ff10"/>
    <path d="M 41.85 204.344531 
L 59.175 204.344531 
L 59.175 221.669531 
L 41.85 221.669531 
L 41.85 204.344531 
" clip-path="url(#p3fd482809c)" style="fill: #ff5785"/>
    <path d="M 59.175 204.344531 
L 76.5 204.344531 
L 76.5 221.669531 
L 59.175 221.669531 
L 59.175 204.344531 
" clip-path="url(#p3fd482809c)" style="fill: #ff5785"/>
    <path d="M 76.5 204.344531 
L 93.825 204.344531 
L 93.825 221.669531 
L 76.5 221.669531 
L 76.5 204.344531 
" clip-path="url(#p3fd482809c)" style="fill: #64ff10"/>
    <path d="M 93.825 204.344531 
L 111.15 204.344531 
L 111.15 221.669531 
L 93.825 221.669531 
L 93.825 204.344531 
" clip-path="url(#p3fd482809c)" style="fill: #64ff10"/>
    <path d="M 111.15 204.344531 
L 128.475 204.344531 
L 128.475 221.669531 
L 111.15 221.669531 
L 111.15 204.344531 
" clip-path="url(#p3fd482809c)" style="fill: #ff5785"/>
    <path d="M 128.475 204.344531 
L 145.8 204.344531 
L 145.8 221.669531 
L 128.475 221.669531 
L 128.475 204.344531 
" clip-path="url(#p3fd482809c)" style="fill: #ff5785"/>
    <path d="M 145.8 204.344531 
L 163.125 204.344531 
L 163.125 221.669531 
L 145.8 221.669531 
L 145.8 204.344531 
" clip-path="url(#p3fd482809c)" style="fill: #ff5785"/>
    <path d="M 163.125 204.344531 
L 180.45 204.344531 
L 180.45 221.669531 
L 163.125 221.669531 
L 163.125 204.344531 
" clip-path="url(#p3fd482809c)" style="fill: #ff5785"/>
    <path d="M 180.45 204.344531 
L 197.775 204.344531 
L 197.775 221.669531 
L 180.45 221.669531 
L 180.45 204.344531 
" clip-path="url(#p3fd482809c)" style="fill: #64ff10"/>
    <path d="M 197.775 204.344531 
L 215.1 204.344531 
L 215.1 221.669531 
L 197.775 221.669531 
L 197.775 204.344531 
" clip-path="url(#p3fd482809c)" style="fill: #64ff10"/>
    <path d="M 215.1 204.344531 
L 232.425 204.344531 
L 232.425 221.669531 
L 215.1 221.669531 
L 215.1 204.344531 
" clip-path="url(#p3fd482809c)" style="fill: #ff5785"/>
    <path d="M 232.425 204.344531 
L 249.75 204.344531 
L 249.75 221.669531 
L 232.425 221.669531 
L 232.425 204.344531 
" clip-path="url(#p3fd482809c)" style="fill: #ff5785"/>
    <path d="M 249.75 204.344531 
L 267.075 204.344531 
L 267.075 221.669531 
L 249.75 221.669531 
L 249.75 204.344531 
" clip-path="url(#p3fd482809c)" style="fill: #64ff10"/>
    <path d="M 267.075 204.344531 
L 284.4 204.344531 
L 284.4 221.669531 
L 267.075 221.669531 
L 267.075 204.344531 
" clip-path="url(#p3fd482809c)" style="fill: #64ff10"/>
    <path d="M 7.2 221.669531 
L 24.525 221.669531 
L 24.525 238.994531 
L 7.2 238.994531 
L 7.2 221.669531 
" clip-path="url(#p3fd482809c)" style="fill: #64ff10"/>
    <path d="M 24.525 221.669531 
L 41.85 221.669531 
L 41.85 238.994531 
L 24.525 238.994531 
L 24.525 221.669531 
" clip-path="url(#p3fd482809c)" style="fill: #ff5785"/>
    <path d="M 41.85 221.669531 
L 59.175 221.669531 
L 59.175 238.994531 
L 41.85 238.994531 
L 41.85 221.669531 
" clip-path="url(#p3fd482809c)" style="fill: #ff5785"/>
    <path d="M 59.175 221.669531 
L 76.5 221.669531 
L 76.5 238.994531 
L 59.175 238.994531 
L 59.175 221.669531 
" clip-path="url(#p3fd482809c)" style="fill: #64ff10"/>
    <path d="M 76.5 221.669531 
L 93.825 221.669531 
L 93.825 238.994531 
L 76.5 238.994531 
L 76.5 221.669531 
" clip-path="url(#p3fd482809c)" style="fill: #64ff10"/>
    <path d="M 93.825 221.669531 
L 111.15 221.669531 
L 111.15 238.994531 
L 93.825 238.994531 
L 93.825 221.669531 
" clip-path="url(#p3fd482809c)" style="fill: #ff5785"/>
    <path d="M 111.15 221.669531 
L 128.475 221.669531 
L 128.475 238.994531 
L 111.15 238.994531 
L 111.15 221.669531 
" clip-path="url(#p3fd482809c)" style="fill: #ff5785"/>
    <path d="M 128.475 221.669531 
L 145.8 221.669531 
L 145.8 238.994531 
L 128.475 238.994531 
L 128.475 221.669531 
" clip-path="url(#p3fd482809c)" style="fill: #64ff10"/>
    <path d="M 145.8 221.669531 
L 163.125 221.669531 
L 163.125 238.994531 
L 145.8 238.994531 
L 145.8 221.669531 
" clip-path="url(#p3fd482809c)" style="fill: #ff5785"/>
    <path d="M 163.125 221.669531 
L 180.45 221.669531 
L 180.45 238.994531 
L 163.125 238.994531 
L 163.125 221.669531 
" clip-path="url(#p3fd482809c)" style="fill: #64ff10"/>
    <path d="M 180.45 221.669531 
L 197.775 221.669531 
L 197.775 238.994531 
L 180.45 238.994531 
L 180.45 221.669531 
" clip-path="url(#p3fd482809c)" style="fill: #64ff10"/>
    <path d="M 197.775 221.669531 
L 215.1 221.669531 
L 215.1 238.994531 
L 197.775 238.994531 
L 197.775 221.669531 
" clip-path="url(#p3fd482809c)" style="fill: #ff5785"/>
    <path d="M 215.1 221.669531 
L 232.425 221.669531 
L 232.425 238.994531 
L 215.1 238.994531 
L 215.1 221.669531 
" clip-path="url(#p3fd482809c)" style="fill: #ff5785"/>
    <path d="M 232.425 221.669531 
L 249.75 221.669531 
L 249.75 238.994531 
L 232.425 238.994531 
L 232.425 221.669531 
" clip-path="url(#p3fd482809c)" style="fill: #64ff10"/>
    <path d="M 249.75 221.669531 
L 267.075 221.669531 
L 267.075 238.994531 
L 249.75 238.994531 
L 249.75 221.669531 
" clip-path="url(#p3fd482809c)" style="fill: #64ff10"/>
    <path d="M 267.075 221.669531 
L 284.4 221.669531 
L 284.4 238.994531 
L 267.075 238.994531 
L 267.075 221.669531 
" clip-path="url(#p3fd482809c)" style="fill: #ff5785"/>
    <path d="M 7.2 238.994531 
L 24.525 238.994531 
L 24.525 256.319531 
L 7.2 256.319531 
L 7.2 238.994531 
" clip-path="url(#p3fd482809c)" style="fill: #64ff10"/>
    <path d="M 24.525 238.994531 
L 41.85 238.994531 
L 41.85 256.319531 
L 24.525 256.319531 
L 24.525 238.994531 
" clip-path="url(#p3fd482809c)" style="fill: #64ff10"/>
    <path d="M 41.85 238.994531 
L 59.175 238.994531 
L 59.175 256.319531 
L 41.85 256.319531 
L 41.85 238.994531 
" clip-path="url(#p3fd482809c)" style="fill: #64ff10"/>
    <path d="M 59.175 238.994531 
L 76.5 238.994531 
L 76.5 256.319531 
L 59.175 256.319531 
L 59.175 238.994531 
" clip-path="url(#p3fd482809c)" style="fill: #64ff10"/>
    <path d="M 76.5 238.994531 
L 93.825 238.994531 
L 93.825 256.319531 
L 76.5 256.319531 
L 76.5 238.994531 
" clip-path="url(#p3fd482809c)" style="fill: #ff5785"/>
    <path d="M 93.825 238.994531 
L 111.15 238.994531 
L 111.15 256.319531 
L 93.825 256.319531 
L 93.825 238.994531 
" clip-path="url(#p3fd482809c)" style="fill: #ff5785"/>
    <path d="M 111.15 238.994531 
L 128.475 238.994531 
L 128.475 256.319531 
L 111.15 256.319531 
L 111.15 238.994531 
" clip-path="url(#p3fd482809c)" style="fill: #ff5785"/>
    <path d="M 128.475 238.994531 
L 145.8 238.994531 
L 145.8 256.319531 
L 128.475 256.319531 
L 128.475 238.994531 
" clip-path="url(#p3fd482809c)" style="fill: #ff5785"/>
    <path d="M 145.8 238.994531 
L 163.125 238.994531 
L 163.125 256.319531 
L 145.8 256.319531 
L 145.8 238.994531 
" clip-path="url(#p3fd482809c)" style="fill: #ff5785"/>
    <path d="M 163.125 238.994531 
L 180.45 238.994531 
L 180.45 256.319531 
L 163.125 256.319531 
L 163.125 238.994531 
" clip-path="url(#p3fd482809c)" style="fill: #ff5785"/>
    <path d="M 180.45 238.994531 
L 197.775 238.994531 
L 197.775 256.319531 
L 180.45 256.319531 
L 180.45 238.994531 
" clip-path="url(#p3fd482809c)" style="fill: #ff5785"/>
    <path d="M 197.775 238.994531 
L 215.1 238.994531 
L 215.1 256.319531 
L 197.775 256.319531 
L 197.775 238.994531 
" clip-path="url(#p3fd482809c)" style="fill: #ff5785"/>
    <path d="M 215.1 238.994531 
L 232.425 238.994531 
L 232.425 256.319531 
L 215.1 256.319531 
L 215.1 238.994531 
" clip-path="url(#p3fd482809c)" style="fill: #64ff10"/>
    <path d="M 232.425 238.994531 
L 249.75 238.994531 
L 249.75 256.319531 
L 232.425 256.319531 
L 232.425 238.994531 
" clip-path="url(#p3fd482809c)" style="fill: #64ff10"/>
    <path d="M 249.75 238.994531 
L 267.075 238.994531 
L 267.075 256.319531 
L 249.75 256.319531 
L 249.75 238.994531 
" clip-path="url(#p3fd482809c)" style="fill: #64ff10"/>
    <path d="M 267.075 238.994531 
L 284.4 238.994531 
L 284.4 256.319531 
L 267.075 256.319531 
L 267.075 238.994531 
" clip-path="url(#p3fd482809c)" style="fill: #64ff10"/>
    <path d="M 7.2 256.319531 
L 24.525 256.319531 
L 24.525 273.644531 
L 7.2 273.644531 
L 7.2 256.319531 
" clip-path="url(#p3fd482809c)" style="fill: #64ff10"/>
    <path d="M 24.525 256.319531 
L 41.85 256.319531 
L 41.85 273.644531 
L 24.525 273.644531 
L 24.525 256.319531 
" clip-path="url(#p3fd482809c)" style="fill: #ff5785"/>
    <path d="M 41.85 256.319531 
L 59.175 256.319531 
L 59.175 273.644531 
L 41.85 273.644531 
L 41.85 256.319531 
" clip-path="url(#p3fd482809c)" style="fill: #64ff10"/>
    <path d="M 59.175 256.319531 
L 76.5 256.319531 
L 76.5 273.644531 
L 59.175 273.644531 
L 59.175 256.319531 
" clip-path="url(#p3fd482809c)" style="fill: #ff5785"/>
    <path d="M 76.5 256.319531 
L 93.825 256.319531 
L 93.825 273.644531 
L 76.5 273.644531 
L 76.5 256.319531 
" clip-path="url(#p3fd482809c)" style="fill: #ff5785"/>
    <path d="M 93.825 256.319531 
L 111.15 256.319531 
L 111.15 273.644531 
L 93.825 273.644531 
L 93.825 256.319531 
" clip-path="url(#p3fd482809c)" style="fill: #64ff10"/>
    <path d="M 111.15 256.319531 
L 128.475 256.319531 
L 128.475 273.644531 
L 111.15 273.644531 
L 111.15 256.319531 
" clip-path="url(#p3fd482809c)" style="fill: #ff5785"/>
    <path d="M 128.475 256.319531 
L 145.8 256.319531 
L 145.8 273.644531 
L 128.475 273.644531 
L 128.475 256.319531 
" clip-path="url(#p3fd482809c)" style="fill: #64ff10"/>
    <path d="M 145.8 256.319531 
L 163.125 256.319531 
L 163.125 273.644531 
L 145.8 273.644531 
L 145.8 256.319531 
" clip-path="url(#p3fd482809c)" style="fill: #ff5785"/>
    <path d="M 163.125 256.319531 
L 180.45 256.319531 
L 180.45 273.644531 
L 163.125 273.644531 
L 163.125 256.319531 
" clip-path="url(#p3fd482809c)" style="fill: #64ff10"/>
    <path d="M 180.45 256.319531 
L 197.775 256.319531 
L 197.775 273.644531 
L 180.45 273.644531 
L 180.45 256.319531 
" clip-path="url(#p3fd482809c)" style="fill: #ff5785"/>
    <path d="M 197.775 256.319531 
L 215.1 256.319531 
L 215.1 273.644531 
L 197.775 273.644531 
L 197.775 256.319531 
" clip-path="url(#p3fd482809c)" style="fill: #64ff10"/>
    <path d="M 215.1 256.319531 
L 232.425 256.319531 
L 232.425 273.644531 
L 215.1 273.644531 
L 215.1 256.319531 
" clip-path="url(#p3fd482809c)" style="fill: #64ff10"/>
    <path d="M 232.425 256.319531 
L 249.75 256.319531 
L 249.75 273.644531 
L 232.425 273.644531 
L 232.425 256.319531 
" clip-path="url(#p3fd482809c)" style="fill: #ff5785"/>
    <path d="M 249.75 256.319531 
L 267.075 256.319531 
L 267.075 273.644531 
L 249.75 273.644531 
L 249.75 256.319531 
" clip-path="url(#p3fd482809c)" style="fill: #64ff10"/>
    <path d="M 267.075 256.319531 
L 284.4 256.319531 
L 284.4 273.644531 
L 267.075 273.644531 
L 267.075 256.319531 
" clip-path="url(#p3fd482809c)" style="fill: #ff5785"/>
    <path d="M 7.2 273.644531 
L 24.525 273.644531 
L 24.525 290.969531 
L 7.2 290.969531 
L 7.2 273.644531 
" clip-path="url(#p3fd482809c)" style="fill: #64ff10"/>
    <path d="M 24.525 273.644531 
L 41.85 273.644531 
L 41.85 290.969531 
L 24.525 290.969531 
L 24.525 273.644531 
" clip-path="url(#p3fd482809c)" style="fill: #64ff10"/>
    <path d="M 41.85 273.644531 
L 59.175 273.644531 
L 59.175 290.969531 
L 41.85 290.969531 
L 41.85 273.644531 
" clip-path="url(#p3fd482809c)" style="fill: #ff5785"/>
    <path d="M 59.175 273.644531 
L 76.5 273.644531 
L 76.5 290.969531 
L 59.175 290.969531 
L 59.175 273.644531 
" clip-path="url(#p3fd482809c)" style="fill: #ff5785"/>
    <path d="M 76.5 273.644531 
L 93.825 273.644531 
L 93.825 290.969531 
L 76.5 290.969531 
L 76.5 273.644531 
" clip-path="url(#p3fd482809c)" style="fill: #ff5785"/>
    <path d="M 93.825 273.644531 
L 111.15 273.644531 
L 111.15 290.969531 
L 93.825 290.969531 
L 93.825 273.644531 
" clip-path="url(#p3fd482809c)" style="fill: #ff5785"/>
    <path d="M 111.15 273.644531 
L 128.475 273.644531 
L 128.475 290.969531 
L 111.15 290.969531 
L 111.15 273.644531 
" clip-path="url(#p3fd482809c)" style="fill: #64ff10"/>
    <path d="M 128.475 273.644531 
L 145.8 273.644531 
L 145.8 290.969531 
L 128.475 290.969531 
L 128.475 273.644531 
" clip-path="url(#p3fd482809c)" style="fill: #64ff10"/>
    <path d="M 145.8 273.644531 
L 163.125 273.644531 
L 163.125 290.969531 
L 145.8 290.969531 
L 145.8 273.644531 
" clip-path="url(#p3fd482809c)" style="fill: #ff5785"/>
    <path d="M 163.125 273.644531 
L 180.45 273.644531 
L 180.45 290.969531 
L 163.125 290.969531 
L 163.125 273.644531 
" clip-path="url(#p3fd482809c)" style="fill: #ff5785"/>
    <path d="M 180.45 273.644531 
L 197.775 273.644531 
L 197.775 290.969531 
L 180.45 290.969531 
L 180.45 273.644531 
" clip-path="url(#p3fd482809c)" style="fill: #64ff10"/>
    <path d="M 197.775 273.644531 
L 215.1 273.644531 
L 215.1 290.969531 
L 197.775 290.969531 
L 197.775 273.644531 
" clip-path="url(#p3fd482809c)" style="fill: #64ff10"/>
    <path d="M 215.1 273.644531 
L 232.425 273.644531 
L 232.425 290.969531 
L 215.1 290.969531 
L 215.1 273.644531 
" clip-path="url(#p3fd482809c)" style="fill: #64ff10"/>
    <path d="M 232.425 273.644531 
L 249.75 273.644531 
L 249.75 290.969531 
L 232.425 290.969531 
L 232.425 273.644531 
" clip-path="url(#p3fd482809c)" style="fill: #64ff10"/>
    <path d="M 249.75 273.644531 
L 267.075 273.644531 
L 267.075 290.969531 
L 249.75 290.969531 
L 249.75 273.644531 
" clip-path="url(#p3fd482809c)" style="fill: #ff5785"/>
    <path d="M 267.075 273.644531 
L 284.4 273.644531 
L 284.4 290.969531 
L 267.075 290.969531 
L 267.075 273.644531 
" clip-path="url(#p3fd482809c)" style="fill: #ff5785"/>
    <path d="M 7.2 290.969531 
L 24.525 290.969531 
L 24.525 308.294531 
L 7.2 308.294531 
L 7.2 290.969531 
" clip-path="url(#p3fd482809c)" style="fill: #64ff10"/>
    <path d="M 24.525 290.969531 
L 41.85 290.969531 
L 41.85 308.294531 
L 24.525 308.294531 
L 24.525 290.969531 
" clip-path="url(#p3fd482809c)" style="fill: #ff5785"/>
    <path d="M 41.85 290.969531 
L 59.175 290.969531 
L 59.175 308.294531 
L 41.85 308.294531 
L 41.85 290.969531 
" clip-path="url(#p3fd482809c)" style="fill: #ff5785"/>
    <path d="M 59.175 290.969531 
L 76.5 290.969531 
L 76.5 308.294531 
L 59.175 308.294531 
L 59.175 290.969531 
" clip-path="url(#p3fd482809c)" style="fill: #64ff10"/>
    <path d="M 76.5 290.969531 
L 93.825 290.969531 
L 93.825 308.294531 
L 76.5 308.294531 
L 76.5 290.969531 
" clip-path="url(#p3fd482809c)" style="fill: #ff5785"/>
    <path d="M 93.825 290.969531 
L 111.15 290.969531 
L 111.15 308.294531 
L 93.825 308.294531 
L 93.825 290.969531 
" clip-path="url(#p3fd482809c)" style="fill: #64ff10"/>
    <path d="M 111.15 290.969531 
L 128.475 290.969531 
L 128.475 308.294531 
L 111.15 308.294531 
L 111.15 290.969531 
" clip-path="url(#p3fd482809c)" style="fill: #64ff10"/>
    <path d="M 128.475 290.969531 
L 145.8 290.969531 
L 145.8 308.294531 
L 128.475 308.294531 
L 128.475 290.969531 
" clip-path="url(#p3fd482809c)" style="fill: #ff5785"/>
    <path d="M 145.8 290.969531 
L 163.125 290.969531 
L 163.125 308.294531 
L 145.8 308.294531 
L 145.8 290.969531 
" clip-path="url(#p3fd482809c)" style="fill: #ff5785"/>
    <path d="M 163.125 290.969531 
L 180.45 290.969531 
L 180.45 308.294531 
L 163.125 308.294531 
L 163.125 290.969531 
" clip-path="url(#p3fd482809c)" style="fill: #64ff10"/>
    <path d="M 180.45 290.969531 
L 197.775 290.969531 
L 197.775 308.294531 
L 180.45 308.294531 
L 180.45 290.969531 
" clip-path="url(#p3fd482809c)" style="fill: #64ff10"/>
    <path d="M 197.775 290.969531 
L 215.1 290.969531 
L 215.1 308.294531 
L 197.775 308.294531 
L 197.775 290.969531 
" clip-path="url(#p3fd482809c)" style="fill: #ff5785"/>
    <path d="M 215.1 290.969531 
L 232.425 290.969531 
L 232.425 308.294531 
L 215.1 308.294531 
L 215.1 290.969531 
" clip-path="url(#p3fd482809c)" style="fill: #64ff10"/>
    <path d="M 232.425 290.969531 
L 249.75 290.969531 
L 249.75 308.294531 
L 232.425 308.294531 
L 232.425 290.969531 
" clip-path="url(#p3fd482809c)" style="fill: #ff5785"/>
    <path d="M 249.75 290.969531 
L 267.075 290.969531 
L 267.075 308.294531 
L 249.75 308.294531 
L 249.75 290.969531 
" clip-path="url(#p3fd482809c)" style="fill: #ff5785"/>
    <path d="M 267.075 290.969531 
L 284.4 290.969531 
L 284.4 308.294531 
L 267.075 308.294531 
L 267.075 290.969531 
" clip-path="url(#p3fd482809c)" style="fill: #64ff10"/>
   </g>
   <g id="text_1">
    <!-- n = 4 -->
    <g style="fill: #262626" transform="translate(117.651563 25.094531) scale(0.25 -0.25)">
     <defs>
      <path id="ArialMT-6e" d="M 422 0 
L 422 3319 
L 928 3319 
L 928 2847 
Q 1294 3394 1984 3394 
Q 2284 3394 2536 3286 
Q 2788 3178 2913 3003 
Q 3038 2828 3088 2588 
Q 3119 2431 3119 2041 
L 3119 0 
L 2556 0 
L 2556 2019 
Q 2556 2363 2490 2533 
Q 2425 2703 2258 2804 
Q 2091 2906 1866 2906 
Q 1506 2906 1245 2678 
Q 984 2450 984 1813 
L 984 0 
L 422 0 
z
" transform="scale(0.015625)"/>
      <path id="ArialMT-20" transform="scale(0.015625)"/>
      <path id="ArialMT-3d" d="M 3381 2694 
L 356 2694 
L 356 3219 
L 3381 3219 
L 3381 2694 
z
M 3381 1303 
L 356 1303 
L 356 1828 
L 3381 1828 
L 3381 1303 
z
" transform="scale(0.015625)"/>
      <path id="ArialMT-34" d="M 2069 0 
L 2069 1097 
L 81 1097 
L 81 1613 
L 2172 4581 
L 2631 4581 
L 2631 1613 
L 3250 1613 
L 3250 1097 
L 2631 1097 
L 2631 0 
L 2069 0 
z
M 2069 1613 
L 2069 3678 
L 634 1613 
L 2069 1613 
z
" transform="scale(0.015625)"/>
     </defs>
     <use xlink:href="#ArialMT-6e"/>
     <use xlink:href="#ArialMT-20" x="55.615234"/>
     <use xlink:href="#ArialMT-3d" x="83.398438"/>
     <use xlink:href="#ArialMT-20" x="141.796875"/>
     <use xlink:href="#ArialMT-34" x="169.580078"/>
    </g>
   </g>
  </g>
 </g>
 <defs>
  <clipPath id="p3fd482809c">
   <rect x="7.2" y="31.094531" width="277.2" height="277.2"/>
  </clipPath>
 </defs>
</svg>
