<?xml version="1.0" encoding="utf-8" standalone="no"?>
<!DOCTYPE svg PUBLIC "-//W3C//DTD SVG 1.1//EN"
  "http://www.w3.org/Graphics/SVG/1.1/DTD/svg11.dtd">
<svg xmlns:xlink="http://www.w3.org/1999/xlink" width="291.6pt" height="315.494531pt" viewBox="0 0 291.6 315.494531" xmlns="http://www.w3.org/2000/svg" version="1.1">
 <metadata>
  <rdf:RDF xmlns:dc="http://purl.org/dc/elements/1.1/" xmlns:cc="http://creativecommons.org/ns#" xmlns:rdf="http://www.w3.org/1999/02/22-rdf-syntax-ns#">
   <cc:Work>
    <dc:type rdf:resource="http://purl.org/dc/dcmitype/StillImage"/>
    <dc:date>2023-10-07T09:44:15.143623</dc:date>
    <dc:format>image/svg+xml</dc:format>
    <dc:creator>
     <cc:Agent>
      <dc:title>Matplotlib v3.7.1, https://matplotlib.org/</dc:title>
     </cc:Agent>
    </dc:creator>
   </cc:Work>
  </rdf:RDF>
 </metadata>
 <defs>
  <style type="text/css">*{stroke-linejoin: round; stroke-linecap: butt}</style>
 </defs>
 <g id="figure_1">
  <g id="patch_1">
   <path d="M 0 315.494531 
L 291.6 315.494531 
L 291.6 0 
L 0 0 
z
" style="fill: #ffffff"/>
  </g>
  <g id="axes_1">
   <g id="patch_2">
    <path d="M 7.2 308.294531 
L 284.4 308.294531 
L 284.4 31.094531 
L 7.2 31.094531 
z
" style="fill: #eaeaf2"/>
   </g>
   <g id="matplotlib.axis_1"/>
   <g id="matplotlib.axis_2"/>
   <g id="QuadMesh_1">
    <path d="M 7.2 31.094531 
L 76.5 31.094531 
L 76.5 100.394531 
L 7.2 100.394531 
L 7.2 31.094531 
" clip-path="url(#p093283fd7b)" style="fill: #64ff10"/>
    <path d="M 76.5 31.094531 
L 145.8 31.094531 
L 145.8 100.394531 
L 76.5 100.394531 
L 76.5 31.094531 
" clip-path="url(#p093283fd7b)" style="fill: #64ff10"/>
    <path d="M 145.8 31.094531 
L 215.1 31.094531 
L 215.1 100.394531 
L 145.8 100.394531 
L 145.8 31.094531 
" clip-path="url(#p093283fd7b)" style="fill: #64ff10"/>
    <path d="M 215.1 31.094531 
L 284.4 31.094531 
L 284.4 100.394531 
L 215.1 100.394531 
L 215.1 31.094531 
" clip-path="url(#p093283fd7b)" style="fill: #64ff10"/>
    <path d="M 7.2 100.394531 
L 76.5 100.394531 
L 76.5 169.694531 
L 7.2 169.694531 
L 7.2 100.394531 
" clip-path="url(#p093283fd7b)" style="fill: #64ff10"/>
    <path d="M 76.5 100.394531 
L 145.8 100.394531 
L 145.8 169.694531 
L 76.5 169.694531 
L 76.5 100.394531 
" clip-path="url(#p093283fd7b)" style="fill: #ff5785"/>
    <path d="M 145.8 100.394531 
L 215.1 100.394531 
L 215.1 169.694531 
L 145.8 169.694531 
L 145.8 100.394531 
" clip-path="url(#p093283fd7b)" style="fill: #64ff10"/>
    <path d="M 215.1 100.394531 
L 284.4 100.394531 
L 284.4 169.694531 
L 215.1 169.694531 
L 215.1 100.394531 
" clip-path="url(#p093283fd7b)" style="fill: #ff5785"/>
    <path d="M 7.2 169.694531 
L 76.5 169.694531 
L 76.5 238.994531 
L 7.2 238.994531 
L 7.2 169.694531 
" clip-path="url(#p093283fd7b)" style="fill: #64ff10"/>
    <path d="M 76.5 169.694531 
L 145.8 169.694531 
L 145.8 238.994531 
L 76.5 238.994531 
L 76.5 169.694531 
" clip-path="url(#p093283fd7b)" style="fill: #64ff10"/>
    <path d="M 145.8 169.694531 
L 215.1 169.694531 
L 215.1 238.994531 
L 145.8 238.994531 
L 145.8 169.694531 
" clip-path="url(#p093283fd7b)" style="fill: #ff5785"/>
    <path d="M 215.1 169.694531 
L 284.4 169.694531 
L 284.4 238.994531 
L 215.1 238.994531 
L 215.1 169.694531 
" clip-path="url(#p093283fd7b)" style="fill: #ff5785"/>
    <path d="M 7.2 238.994531 
L 76.5 238.994531 
L 76.5 308.294531 
L 7.2 308.294531 
L 7.2 238.994531 
" clip-path="url(#p093283fd7b)" style="fill: #64ff10"/>
    <path d="M 76.5 238.994531 
L 145.8 238.994531 
L 145.8 308.294531 
L 76.5 308.294531 
L 76.5 238.994531 
" clip-path="url(#p093283fd7b)" style="fill: #ff5785"/>
    <path d="M 145.8 238.994531 
L 215.1 238.994531 
L 215.1 308.294531 
L 145.8 308.294531 
L 145.8 238.994531 
" clip-path="url(#p093283fd7b)" style="fill: #ff5785"/>
    <path d="M 215.1 238.994531 
L 284.4 238.994531 
L 284.4 308.294531 
L 215.1 308.294531 
L 215.1 238.994531 
" clip-path="url(#p093283fd7b)" style="fill: #64ff10"/>
   </g>
   <g id="text_1">
    <!-- n = 2 -->
    <g style="fill: #262626" transform="translate(117.651563 25.094531) scale(0.25 -0.25)">
     <defs>
      <path id="ArialMT-6e" d="M 422 0 
L 422 3319 
L 928 3319 
L 928 2847 
Q 1294 3394 1984 3394 
Q 2284 3394 2536 3286 
Q 2788 3178 2913 3003 
Q 3038 2828 3088 2588 
Q 3119 2431 3119 2041 
L 3119 0 
L 2556 0 
L 2556 2019 
Q 2556 2363 2490 2533 
Q 2425 2703 2258 2804 
Q 2091 2906 1866 2906 
Q 1506 2906 1245 2678 
Q 984 2450 984 1813 
L 984 0 
L 422 0 
z
" transform="scale(0.015625)"/>
      <path id="ArialMT-20" transform="scale(0.015625)"/>
      <path id="ArialMT-3d" d="M 3381 2694 
L 356 2694 
L 356 3219 
L 3381 3219 
L 3381 2694 
z
M 3381 1303 
L 356 1303 
L 356 1828 
L 3381 1828 
L 3381 1303 
z
" transform="scale(0.015625)"/>
      <path id="ArialMT-32" d="M 3222 541 
L 3222 0 
L 194 0 
Q 188 203 259 391 
Q 375 700 629 1000 
Q 884 1300 1366 1694 
Q 2113 2306 2375 2664 
Q 2638 3022 2638 3341 
Q 2638 3675 2398 3904 
Q 2159 4134 1775 4134 
Q 1369 4134 1125 3890 
Q 881 3647 878 3216 
L 300 3275 
Q 359 3922 746 4261 
Q 1134 4600 1788 4600 
Q 2447 4600 2831 4234 
Q 3216 3869 3216 3328 
Q 3216 3053 3103 2787 
Q 2991 2522 2730 2228 
Q 2469 1934 1863 1422 
Q 1356 997 1212 845 
Q 1069 694 975 541 
L 3222 541 
z
" transform="scale(0.015625)"/>
     </defs>
     <use xlink:href="#ArialMT-6e"/>
     <use xlink:href="#ArialMT-20" x="55.615234"/>
     <use xlink:href="#ArialMT-3d" x="83.398438"/>
     <use xlink:href="#ArialMT-20" x="141.796875"/>
     <use xlink:href="#ArialMT-32" x="169.580078"/>
    </g>
   </g>
  </g>
 </g>
 <defs>
  <clipPath id="p093283fd7b">
   <rect x="7.2" y="31.094531" width="277.2" height="277.2"/>
  </clipPath>
 </defs>
</svg>
