<?xml version="1.0" encoding="utf-8" standalone="no"?>
<!DOCTYPE svg PUBLIC "-//W3C//DTD SVG 1.1//EN"
  "http://www.w3.org/Graphics/SVG/1.1/DTD/svg11.dtd">
<svg xmlns:xlink="http://www.w3.org/1999/xlink" width="291.6pt" height="315.494531pt" viewBox="0 0 291.6 315.494531" xmlns="http://www.w3.org/2000/svg" version="1.1">
 <metadata>
  <rdf:RDF xmlns:dc="http://purl.org/dc/elements/1.1/" xmlns:cc="http://creativecommons.org/ns#" xmlns:rdf="http://www.w3.org/1999/02/22-rdf-syntax-ns#">
   <cc:Work>
    <dc:type rdf:resource="http://purl.org/dc/dcmitype/StillImage"/>
    <dc:date>2023-10-07T09:44:14.870254</dc:date>
    <dc:format>image/svg+xml</dc:format>
    <dc:creator>
     <cc:Agent>
      <dc:title>Matplotlib v3.7.1, https://matplotlib.org/</dc:title>
     </cc:Agent>
    </dc:creator>
   </cc:Work>
  </rdf:RDF>
 </metadata>
 <defs>
  <style type="text/css">*{stroke-linejoin: round; stroke-linecap: butt}</style>
 </defs>
 <g id="figure_1">
  <g id="patch_1">
   <path d="M 0 315.494531 
L 291.6 315.494531 
L 291.6 0 
L 0 0 
z
" style="fill: #ffffff"/>
  </g>
  <g id="axes_1">
   <g id="patch_2">
    <path d="M 7.2 308.294531 
L 284.4 308.294531 
L 284.4 31.094531 
L 7.2 31.094531 
z
" style="fill: #eaeaf2"/>
   </g>
   <g id="matplotlib.axis_1"/>
   <g id="matplotlib.axis_2"/>
   <g id="QuadMesh_1">
    <path d="M 7.2 31.094531 
L 145.8 31.094531 
L 145.8 169.694531 
L 7.2 169.694531 
L 7.2 31.094531 
" clip-path="url(#pe78865da29)" style="fill: #64ff10"/>
    <path d="M 145.8 31.094531 
L 284.4 31.094531 
L 284.4 169.694531 
L 145.8 169.694531 
L 145.8 31.094531 
" clip-path="url(#pe78865da29)" style="fill: #64ff10"/>
    <path d="M 7.2 169.694531 
L 145.8 169.694531 
L 145.8 308.294531 
L 7.2 308.294531 
L 7.2 169.694531 
" clip-path="url(#pe78865da29)" style="fill: #64ff10"/>
    <path d="M 145.8 169.694531 
L 284.4 169.694531 
L 284.4 308.294531 
L 145.8 308.294531 
L 145.8 169.694531 
" clip-path="url(#pe78865da29)" style="fill: #ff5785"/>
   </g>
   <g id="text_1">
    <!-- n = 1 -->
    <g style="fill: #262626" transform="translate(117.651563 25.094531) scale(0.25 -0.25)">
     <defs>
      <path id="ArialMT-6e" d="M 422 0 
L 422 3319 
L 928 3319 
L 928 2847 
Q 1294 3394 1984 3394 
Q 2284 3394 2536 3286 
Q 2788 3178 2913 3003 
Q 3038 2828 3088 2588 
Q 3119 2431 3119 2041 
L 3119 0 
L 2556 0 
L 2556 2019 
Q 2556 2363 2490 2533 
Q 2425 2703 2258 2804 
Q 2091 2906 1866 2906 
Q 1506 2906 1245 2678 
Q 984 2450 984 1813 
L 984 0 
L 422 0 
z
" transform="scale(0.015625)"/>
      <path id="ArialMT-20" transform="scale(0.015625)"/>
      <path id="ArialMT-3d" d="M 3381 2694 
L 356 2694 
L 356 3219 
L 3381 3219 
L 3381 2694 
z
M 3381 1303 
L 356 1303 
L 356 1828 
L 3381 1828 
L 3381 1303 
z
" transform="scale(0.015625)"/>
      <path id="ArialMT-31" d="M 2384 0 
L 1822 0 
L 1822 3584 
Q 1619 3391 1289 3197 
Q 959 3003 697 2906 
L 697 3450 
Q 1169 3672 1522 3987 
Q 1875 4303 2022 4600 
L 2384 4600 
L 2384 0 
z
" transform="scale(0.015625)"/>
     </defs>
     <use xlink:href="#ArialMT-6e"/>
     <use xlink:href="#ArialMT-20" x="55.615234"/>
     <use xlink:href="#ArialMT-3d" x="83.398438"/>
     <use xlink:href="#ArialMT-20" x="141.796875"/>
     <use xlink:href="#ArialMT-31" x="169.580078"/>
    </g>
   </g>
  </g>
 </g>
 <defs>
  <clipPath id="pe78865da29">
   <rect x="7.2" y="31.094531" width="277.2" height="277.2"/>
  </clipPath>
 </defs>
</svg>
