<?xml version="1.0" encoding="utf-8" standalone="no"?>
<!DOCTYPE svg PUBLIC "-//W3C//DTD SVG 1.1//EN"
  "http://www.w3.org/Graphics/SVG/1.1/DTD/svg11.dtd">
<svg xmlns:xlink="http://www.w3.org/1999/xlink" width="291.6pt" height="315.494531pt" viewBox="0 0 291.6 315.494531" xmlns="http://www.w3.org/2000/svg" version="1.1">
 <metadata>
  <rdf:RDF xmlns:dc="http://purl.org/dc/elements/1.1/" xmlns:cc="http://creativecommons.org/ns#" xmlns:rdf="http://www.w3.org/1999/02/22-rdf-syntax-ns#">
   <cc:Work>
    <dc:type rdf:resource="http://purl.org/dc/dcmitype/StillImage"/>
    <dc:date>2023-10-07T09:44:15.553629</dc:date>
    <dc:format>image/svg+xml</dc:format>
    <dc:creator>
     <cc:Agent>
      <dc:title>Matplotlib v3.7.1, https://matplotlib.org/</dc:title>
     </cc:Agent>
    </dc:creator>
   </cc:Work>
  </rdf:RDF>
 </metadata>
 <defs>
  <style type="text/css">*{stroke-linejoin: round; stroke-linecap: butt}</style>
 </defs>
 <g id="figure_1">
  <g id="patch_1">
   <path d="M 0 315.494531 
L 291.6 315.494531 
L 291.6 0 
L 0 0 
z
" style="fill: #ffffff"/>
  </g>
  <g id="axes_1">
   <g id="patch_2">
    <path d="M 7.2 308.294531 
L 284.4 308.294531 
L 284.4 31.094531 
L 7.2 31.094531 
z
" style="fill: #eaeaf2"/>
   </g>
   <g id="matplotlib.axis_1"/>
   <g id="matplotlib.axis_2"/>
   <g id="QuadMesh_1">
    <path d="M 7.2 31.094531 
L 41.85 31.094531 
L 41.85 65.744531 
L 7.2 65.744531 
L 7.2 31.094531 
" clip-path="url(#p3ea557f684)" style="fill: #64ff10"/>
    <path d="M 41.85 31.094531 
L 76.5 31.094531 
L 76.5 65.744531 
L 41.85 65.744531 
L 41.85 31.094531 
" clip-path="url(#p3ea557f684)" style="fill: #64ff10"/>
    <path d="M 76.5 31.094531 
L 111.15 31.094531 
L 111.15 65.744531 
L 76.5 65.744531 
L 76.5 31.094531 
" clip-path="url(#p3ea557f684)" style="fill: #64ff10"/>
    <path d="M 111.15 31.094531 
L 145.8 31.094531 
L 145.8 65.744531 
L 111.15 65.744531 
L 111.15 31.094531 
" clip-path="url(#p3ea557f684)" style="fill: #64ff10"/>
    <path d="M 145.8 31.094531 
L 180.45 31.094531 
L 180.45 65.744531 
L 145.8 65.744531 
L 145.8 31.094531 
" clip-path="url(#p3ea557f684)" style="fill: #64ff10"/>
    <path d="M 180.45 31.094531 
L 215.1 31.094531 
L 215.1 65.744531 
L 180.45 65.744531 
L 180.45 31.094531 
" clip-path="url(#p3ea557f684)" style="fill: #64ff10"/>
    <path d="M 215.1 31.094531 
L 249.75 31.094531 
L 249.75 65.744531 
L 215.1 65.744531 
L 215.1 31.094531 
" clip-path="url(#p3ea557f684)" style="fill: #64ff10"/>
    <path d="M 249.75 31.094531 
L 284.4 31.094531 
L 284.4 65.744531 
L 249.75 65.744531 
L 249.75 31.094531 
" clip-path="url(#p3ea557f684)" style="fill: #64ff10"/>
    <path d="M 7.2 65.744531 
L 41.85 65.744531 
L 41.85 100.394531 
L 7.2 100.394531 
L 7.2 65.744531 
" clip-path="url(#p3ea557f684)" style="fill: #64ff10"/>
    <path d="M 41.85 65.744531 
L 76.5 65.744531 
L 76.5 100.394531 
L 41.85 100.394531 
L 41.85 65.744531 
" clip-path="url(#p3ea557f684)" style="fill: #ff5785"/>
    <path d="M 76.5 65.744531 
L 111.15 65.744531 
L 111.15 100.394531 
L 76.5 100.394531 
L 76.5 65.744531 
" clip-path="url(#p3ea557f684)" style="fill: #64ff10"/>
    <path d="M 111.15 65.744531 
L 145.8 65.744531 
L 145.8 100.394531 
L 111.15 100.394531 
L 111.15 65.744531 
" clip-path="url(#p3ea557f684)" style="fill: #ff5785"/>
    <path d="M 145.8 65.744531 
L 180.45 65.744531 
L 180.45 100.394531 
L 145.8 100.394531 
L 145.8 65.744531 
" clip-path="url(#p3ea557f684)" style="fill: #64ff10"/>
    <path d="M 180.45 65.744531 
L 215.1 65.744531 
L 215.1 100.394531 
L 180.45 100.394531 
L 180.45 65.744531 
" clip-path="url(#p3ea557f684)" style="fill: #ff5785"/>
    <path d="M 215.1 65.744531 
L 249.75 65.744531 
L 249.75 100.394531 
L 215.1 100.394531 
L 215.1 65.744531 
" clip-path="url(#p3ea557f684)" style="fill: #64ff10"/>
    <path d="M 249.75 65.744531 
L 284.4 65.744531 
L 284.4 100.394531 
L 249.75 100.394531 
L 249.75 65.744531 
" clip-path="url(#p3ea557f684)" style="fill: #ff5785"/>
    <path d="M 7.2 100.394531 
L 41.85 100.394531 
L 41.85 135.044531 
L 7.2 135.044531 
L 7.2 100.394531 
" clip-path="url(#p3ea557f684)" style="fill: #64ff10"/>
    <path d="M 41.85 100.394531 
L 76.5 100.394531 
L 76.5 135.044531 
L 41.85 135.044531 
L 41.85 100.394531 
" clip-path="url(#p3ea557f684)" style="fill: #64ff10"/>
    <path d="M 76.5 100.394531 
L 111.15 100.394531 
L 111.15 135.044531 
L 76.5 135.044531 
L 76.5 100.394531 
" clip-path="url(#p3ea557f684)" style="fill: #ff5785"/>
    <path d="M 111.15 100.394531 
L 145.8 100.394531 
L 145.8 135.044531 
L 111.15 135.044531 
L 111.15 100.394531 
" clip-path="url(#p3ea557f684)" style="fill: #ff5785"/>
    <path d="M 145.8 100.394531 
L 180.45 100.394531 
L 180.45 135.044531 
L 145.8 135.044531 
L 145.8 100.394531 
" clip-path="url(#p3ea557f684)" style="fill: #64ff10"/>
    <path d="M 180.45 100.394531 
L 215.1 100.394531 
L 215.1 135.044531 
L 180.45 135.044531 
L 180.45 100.394531 
" clip-path="url(#p3ea557f684)" style="fill: #64ff10"/>
    <path d="M 215.1 100.394531 
L 249.75 100.394531 
L 249.75 135.044531 
L 215.1 135.044531 
L 215.1 100.394531 
" clip-path="url(#p3ea557f684)" style="fill: #ff5785"/>
    <path d="M 249.75 100.394531 
L 284.4 100.394531 
L 284.4 135.044531 
L 249.75 135.044531 
L 249.75 100.394531 
" clip-path="url(#p3ea557f684)" style="fill: #ff5785"/>
    <path d="M 7.2 135.044531 
L 41.85 135.044531 
L 41.85 169.694531 
L 7.2 169.694531 
L 7.2 135.044531 
" clip-path="url(#p3ea557f684)" style="fill: #64ff10"/>
    <path d="M 41.85 135.044531 
L 76.5 135.044531 
L 76.5 169.694531 
L 41.85 169.694531 
L 41.85 135.044531 
" clip-path="url(#p3ea557f684)" style="fill: #ff5785"/>
    <path d="M 76.5 135.044531 
L 111.15 135.044531 
L 111.15 169.694531 
L 76.5 169.694531 
L 76.5 135.044531 
" clip-path="url(#p3ea557f684)" style="fill: #ff5785"/>
    <path d="M 111.15 135.044531 
L 145.8 135.044531 
L 145.8 169.694531 
L 111.15 169.694531 
L 111.15 135.044531 
" clip-path="url(#p3ea557f684)" style="fill: #64ff10"/>
    <path d="M 145.8 135.044531 
L 180.45 135.044531 
L 180.45 169.694531 
L 145.8 169.694531 
L 145.8 135.044531 
" clip-path="url(#p3ea557f684)" style="fill: #64ff10"/>
    <path d="M 180.45 135.044531 
L 215.1 135.044531 
L 215.1 169.694531 
L 180.45 169.694531 
L 180.45 135.044531 
" clip-path="url(#p3ea557f684)" style="fill: #ff5785"/>
    <path d="M 215.1 135.044531 
L 249.75 135.044531 
L 249.75 169.694531 
L 215.1 169.694531 
L 215.1 135.044531 
" clip-path="url(#p3ea557f684)" style="fill: #ff5785"/>
    <path d="M 249.75 135.044531 
L 284.4 135.044531 
L 284.4 169.694531 
L 249.75 169.694531 
L 249.75 135.044531 
" clip-path="url(#p3ea557f684)" style="fill: #64ff10"/>
    <path d="M 7.2 169.694531 
L 41.85 169.694531 
L 41.85 204.344531 
L 7.2 204.344531 
L 7.2 169.694531 
" clip-path="url(#p3ea557f684)" style="fill: #64ff10"/>
    <path d="M 41.85 169.694531 
L 76.5 169.694531 
L 76.5 204.344531 
L 41.85 204.344531 
L 41.85 169.694531 
" clip-path="url(#p3ea557f684)" style="fill: #64ff10"/>
    <path d="M 76.5 169.694531 
L 111.15 169.694531 
L 111.15 204.344531 
L 76.5 204.344531 
L 76.5 169.694531 
" clip-path="url(#p3ea557f684)" style="fill: #64ff10"/>
    <path d="M 111.15 169.694531 
L 145.8 169.694531 
L 145.8 204.344531 
L 111.15 204.344531 
L 111.15 169.694531 
" clip-path="url(#p3ea557f684)" style="fill: #64ff10"/>
    <path d="M 145.8 169.694531 
L 180.45 169.694531 
L 180.45 204.344531 
L 145.8 204.344531 
L 145.8 169.694531 
" clip-path="url(#p3ea557f684)" style="fill: #ff5785"/>
    <path d="M 180.45 169.694531 
L 215.1 169.694531 
L 215.1 204.344531 
L 180.45 204.344531 
L 180.45 169.694531 
" clip-path="url(#p3ea557f684)" style="fill: #ff5785"/>
    <path d="M 215.1 169.694531 
L 249.75 169.694531 
L 249.75 204.344531 
L 215.1 204.344531 
L 215.1 169.694531 
" clip-path="url(#p3ea557f684)" style="fill: #ff5785"/>
    <path d="M 249.75 169.694531 
L 284.4 169.694531 
L 284.4 204.344531 
L 249.75 204.344531 
L 249.75 169.694531 
" clip-path="url(#p3ea557f684)" style="fill: #ff5785"/>
    <path d="M 7.2 204.344531 
L 41.85 204.344531 
L 41.85 238.994531 
L 7.2 238.994531 
L 7.2 204.344531 
" clip-path="url(#p3ea557f684)" style="fill: #64ff10"/>
    <path d="M 41.85 204.344531 
L 76.5 204.344531 
L 76.5 238.994531 
L 41.85 238.994531 
L 41.85 204.344531 
" clip-path="url(#p3ea557f684)" style="fill: #ff5785"/>
    <path d="M 76.5 204.344531 
L 111.15 204.344531 
L 111.15 238.994531 
L 76.5 238.994531 
L 76.5 204.344531 
" clip-path="url(#p3ea557f684)" style="fill: #64ff10"/>
    <path d="M 111.15 204.344531 
L 145.8 204.344531 
L 145.8 238.994531 
L 111.15 238.994531 
L 111.15 204.344531 
" clip-path="url(#p3ea557f684)" style="fill: #ff5785"/>
    <path d="M 145.8 204.344531 
L 180.45 204.344531 
L 180.45 238.994531 
L 145.8 238.994531 
L 145.8 204.344531 
" clip-path="url(#p3ea557f684)" style="fill: #ff5785"/>
    <path d="M 180.45 204.344531 
L 215.1 204.344531 
L 215.1 238.994531 
L 180.45 238.994531 
L 180.45 204.344531 
" clip-path="url(#p3ea557f684)" style="fill: #64ff10"/>
    <path d="M 215.1 204.344531 
L 249.75 204.344531 
L 249.75 238.994531 
L 215.1 238.994531 
L 215.1 204.344531 
" clip-path="url(#p3ea557f684)" style="fill: #ff5785"/>
    <path d="M 249.75 204.344531 
L 284.4 204.344531 
L 284.4 238.994531 
L 249.75 238.994531 
L 249.75 204.344531 
" clip-path="url(#p3ea557f684)" style="fill: #64ff10"/>
    <path d="M 7.2 238.994531 
L 41.85 238.994531 
L 41.85 273.644531 
L 7.2 273.644531 
L 7.2 238.994531 
" clip-path="url(#p3ea557f684)" style="fill: #64ff10"/>
    <path d="M 41.85 238.994531 
L 76.5 238.994531 
L 76.5 273.644531 
L 41.85 273.644531 
L 41.85 238.994531 
" clip-path="url(#p3ea557f684)" style="fill: #64ff10"/>
    <path d="M 76.5 238.994531 
L 111.15 238.994531 
L 111.15 273.644531 
L 76.5 273.644531 
L 76.5 238.994531 
" clip-path="url(#p3ea557f684)" style="fill: #ff5785"/>
    <path d="M 111.15 238.994531 
L 145.8 238.994531 
L 145.8 273.644531 
L 111.15 273.644531 
L 111.15 238.994531 
" clip-path="url(#p3ea557f684)" style="fill: #ff5785"/>
    <path d="M 145.8 238.994531 
L 180.45 238.994531 
L 180.45 273.644531 
L 145.8 273.644531 
L 145.8 238.994531 
" clip-path="url(#p3ea557f684)" style="fill: #ff5785"/>
    <path d="M 180.45 238.994531 
L 215.1 238.994531 
L 215.1 273.644531 
L 180.45 273.644531 
L 180.45 238.994531 
" clip-path="url(#p3ea557f684)" style="fill: #ff5785"/>
    <path d="M 215.1 238.994531 
L 249.75 238.994531 
L 249.75 273.644531 
L 215.1 273.644531 
L 215.1 238.994531 
" clip-path="url(#p3ea557f684)" style="fill: #64ff10"/>
    <path d="M 249.75 238.994531 
L 284.4 238.994531 
L 284.4 273.644531 
L 249.75 273.644531 
L 249.75 238.994531 
" clip-path="url(#p3ea557f684)" style="fill: #64ff10"/>
    <path d="M 7.2 273.644531 
L 41.85 273.644531 
L 41.85 308.294531 
L 7.2 308.294531 
L 7.2 273.644531 
" clip-path="url(#p3ea557f684)" style="fill: #64ff10"/>
    <path d="M 41.85 273.644531 
L 76.5 273.644531 
L 76.5 308.294531 
L 41.85 308.294531 
L 41.85 273.644531 
" clip-path="url(#p3ea557f684)" style="fill: #ff5785"/>
    <path d="M 76.5 273.644531 
L 111.15 273.644531 
L 111.15 308.294531 
L 76.5 308.294531 
L 76.5 273.644531 
" clip-path="url(#p3ea557f684)" style="fill: #ff5785"/>
    <path d="M 111.15 273.644531 
L 145.8 273.644531 
L 145.8 308.294531 
L 111.15 308.294531 
L 111.15 273.644531 
" clip-path="url(#p3ea557f684)" style="fill: #64ff10"/>
    <path d="M 145.8 273.644531 
L 180.45 273.644531 
L 180.45 308.294531 
L 145.8 308.294531 
L 145.8 273.644531 
" clip-path="url(#p3ea557f684)" style="fill: #ff5785"/>
    <path d="M 180.45 273.644531 
L 215.1 273.644531 
L 215.1 308.294531 
L 180.45 308.294531 
L 180.45 273.644531 
" clip-path="url(#p3ea557f684)" style="fill: #64ff10"/>
    <path d="M 215.1 273.644531 
L 249.75 273.644531 
L 249.75 308.294531 
L 215.1 308.294531 
L 215.1 273.644531 
" clip-path="url(#p3ea557f684)" style="fill: #64ff10"/>
    <path d="M 249.75 273.644531 
L 284.4 273.644531 
L 284.4 308.294531 
L 249.75 308.294531 
L 249.75 273.644531 
" clip-path="url(#p3ea557f684)" style="fill: #ff5785"/>
   </g>
   <g id="text_1">
    <!-- n = 3 -->
    <g style="fill: #262626" transform="translate(117.651563 25.094531) scale(0.25 -0.25)">
     <defs>
      <path id="ArialMT-6e" d="M 422 0 
L 422 3319 
L 928 3319 
L 928 2847 
Q 1294 3394 1984 3394 
Q 2284 3394 2536 3286 
Q 2788 3178 2913 3003 
Q 3038 2828 3088 2588 
Q 3119 2431 3119 2041 
L 3119 0 
L 2556 0 
L 2556 2019 
Q 2556 2363 2490 2533 
Q 2425 2703 2258 2804 
Q 2091 2906 1866 2906 
Q 1506 2906 1245 2678 
Q 984 2450 984 1813 
L 984 0 
L 422 0 
z
" transform="scale(0.015625)"/>
      <path id="ArialMT-20" transform="scale(0.015625)"/>
      <path id="ArialMT-3d" d="M 3381 2694 
L 356 2694 
L 356 3219 
L 3381 3219 
L 3381 2694 
z
M 3381 1303 
L 356 1303 
L 356 1828 
L 3381 1828 
L 3381 1303 
z
" transform="scale(0.015625)"/>
      <path id="ArialMT-33" d="M 269 1209 
L 831 1284 
Q 928 806 1161 595 
Q 1394 384 1728 384 
Q 2125 384 2398 659 
Q 2672 934 2672 1341 
Q 2672 1728 2419 1979 
Q 2166 2231 1775 2231 
Q 1616 2231 1378 2169 
L 1441 2663 
Q 1497 2656 1531 2656 
Q 1891 2656 2178 2843 
Q 2466 3031 2466 3422 
Q 2466 3731 2256 3934 
Q 2047 4138 1716 4138 
Q 1388 4138 1169 3931 
Q 950 3725 888 3313 
L 325 3413 
Q 428 3978 793 4289 
Q 1159 4600 1703 4600 
Q 2078 4600 2393 4439 
Q 2709 4278 2876 4000 
Q 3044 3722 3044 3409 
Q 3044 3113 2884 2869 
Q 2725 2625 2413 2481 
Q 2819 2388 3044 2092 
Q 3269 1797 3269 1353 
Q 3269 753 2831 336 
Q 2394 -81 1725 -81 
Q 1122 -81 723 278 
Q 325 638 269 1209 
z
" transform="scale(0.015625)"/>
     </defs>
     <use xlink:href="#ArialMT-6e"/>
     <use xlink:href="#ArialMT-20" x="55.615234"/>
     <use xlink:href="#ArialMT-3d" x="83.398438"/>
     <use xlink:href="#ArialMT-20" x="141.796875"/>
     <use xlink:href="#ArialMT-33" x="169.580078"/>
    </g>
   </g>
  </g>
 </g>
 <defs>
  <clipPath id="p3ea557f684">
   <rect x="7.2" y="31.094531" width="277.2" height="277.2"/>
  </clipPath>
 </defs>
</svg>
